<svg width="443" height="505" viewBox="0 0 443 505" fill="none" xmlns="http://www.w3.org/2000/svg">
<path d="M221.344 504.41C343.399 504.41 442.344 499.709 442.344 493.91C442.344 488.111 343.399 483.41 221.344 483.41C99.2891 483.41 0.343994 488.111 0.343994 493.91C0.343994 499.709 99.2891 504.41 221.344 504.41Z" fill="#D0CDE1"/>
<path d="M336.344 69.41L340.344 62.41L320.344 58.41L318.344 68.41L321.344 76.41L336.344 69.41Z" fill="#D6D9E0"/>
<path opacity="0.2" d="M336.344 69.41L340.344 62.41L320.344 58.41L318.344 68.41L321.344 76.41L336.344 69.41Z" fill="black"/>
<path d="M324.844 64.9095C339.203 64.9095 350.844 53.269 350.844 38.9095C350.844 24.5501 339.203 12.9095 324.844 12.9095C310.485 12.9095 298.844 24.5501 298.844 38.9095C298.844 53.269 310.485 64.9095 324.844 64.9095Z" fill="#FFB8B8"/>
<path d="M302.844 38.91L281.844 73.91L312.844 91.91L328.844 54.91L302.844 38.91Z" fill="#FFB8B8"/>
<path d="M300.844 79.9095L273.844 68.9095C273.844 68.9095 232.844 75.9095 228.844 88.9095C224.844 101.91 224.844 206.91 224.844 206.91C224.844 206.91 214.844 232.91 228.844 233.91C228.844 233.91 224.844 239.91 228.844 240.91C232.844 241.91 273.844 240.91 289.844 245.91C305.844 250.91 337.844 254.91 337.844 249.91V240.91C337.844 240.91 344.844 233.91 340.844 221.91C336.844 209.91 331.844 183.91 331.844 183.91C331.844 183.91 361.844 117.91 358.844 109.91C355.844 101.91 319.217 77.172 319.217 77.172L300.844 79.9095Z" fill="#D6D9E0"/>
<path d="M238.844 206.91L239.844 214.91L253.844 197.91H248.844L238.844 206.91Z" fill="#FFB8B8"/>
<path d="M300.844 79.9096L271.844 72.9096C271.844 72.9096 265.844 67.9096 265.844 61.9096C265.844 55.9096 274.844 46.9096 280.844 40.9096C281.366 40.374 281.992 39.9498 282.683 39.6628C283.374 39.3758 284.116 39.2318 284.864 39.2396C290.804 39.1896 298.004 46.9796 298.004 46.9796L290.014 60.3096L289.654 60.8996L300.844 79.9096Z" fill="#D6D9E0"/>
<path d="M323.197 67.9682L340.344 62.4095C340.344 62.4095 345.844 83.9095 339.844 84.9095C333.844 85.9095 300.844 82.9095 300.844 82.9095L323.197 67.9682Z" fill="#D6D9E0"/>
<path d="M230.844 235.91L217.844 309.91C217.844 309.91 212.844 318.91 214.844 322.91C216.844 326.91 217.844 326.91 214.844 328.91C211.844 330.91 207.844 328.91 208.844 333.91C209.443 336.874 209.778 339.886 209.844 342.91L181.844 438.91C181.844 438.91 163.844 446.91 176.844 451.91C189.844 456.91 202.844 460.91 205.844 455.91C208.844 450.91 205.844 444.91 205.844 444.91L251.844 334.91C251.844 334.91 258.844 324.91 258.844 318.91C258.844 312.91 281.844 269.91 281.844 269.91C281.844 269.91 282.844 312.91 283.844 315.91C284.844 318.91 281.844 324.91 281.844 328.91C281.844 332.91 279.844 332.91 281.844 334.91C283.844 336.91 283.844 359.91 283.844 359.91C283.844 359.91 271.844 448.91 278.844 449.91C285.844 450.91 305.844 448.91 305.844 444.91C305.844 440.91 302.844 439.91 302.844 439.91L315.844 363.91C315.844 363.91 314.844 358.91 316.844 354.91C318.844 350.91 318.844 350.91 318.844 348.91C318.844 346.91 317.844 345.91 318.844 344.91C319.497 344.046 319.849 342.992 319.844 341.91C319.844 341.91 317.844 335.91 318.844 334.91C319.844 333.91 341.844 258.91 334.844 249.91C327.844 240.91 230.844 235.91 230.844 235.91Z" fill="#2F2E41"/>
<path d="M279.844 446.91L272.844 462.91C272.844 462.91 256.844 480.91 268.844 484.91C280.844 488.91 284.844 487.91 284.844 487.91C284.844 487.91 289.844 488.91 289.844 490.91C289.844 492.91 329.844 507.91 332.844 494.91C335.844 481.91 301.844 457.91 301.844 457.91V445.91L279.844 446.91Z" fill="#2F2E41"/>
<path d="M202.709 454.316L204.223 471.714C204.223 471.714 213.625 493.886 200.976 493.838C188.327 493.789 184.857 491.562 184.857 491.562C184.857 491.562 179.8 490.91 179.16 492.805C178.52 494.7 135.824 496.117 137.14 482.84C138.456 469.564 178.347 457.701 178.347 457.701L182.185 446.331L202.709 454.316Z" fill="#2F2E41"/>
<path d="M299.52 46.0271C301.126 45.9194 302.197 44.1688 302.641 42.5033C303.086 40.8377 303.199 39.0129 304.106 37.5817C306.592 33.6599 313.056 35.244 315.681 31.4287C317.296 29.0822 316.958 25.2615 319.288 23.7685C320.76 22.8257 322.636 23.3113 324.258 23.9036C330.543 26.2171 336.346 29.6732 341.374 34.0975L343.462 32.3973L346.07 37.6116C347.081 36.3922 349.031 37.3376 349.88 38.6933C350.729 40.0489 351.14 41.7814 352.35 42.7688C354.279 44.3426 357.292 43.0097 358.46 40.7276C359.628 38.4454 359.435 35.6556 359.03 33.0864C358.021 26.6499 355.872 20.4453 352.682 14.7645L355.068 13.3328L351.983 12.8921L353.164 10.2134L349.932 10.1756L351.208 7.88576C346.864 9.37661 342.374 6.64602 338.225 4.61031C331.284 1.20518 323.477 -0.428942 315.941 0.836048C312.079 1.46296 308.391 2.88724 305.111 5.01815C301.83 7.14905 299.03 9.93986 296.887 13.2128C293.601 18.3788 291.704 25.8803 293.347 32.0668C294.84 37.6902 301.358 38.5654 299.52 46.0271Z" fill="#2F2E41"/>
<path d="M234.844 84.9095C234.844 84.9095 228.844 83.9095 224.844 91.9095C220.844 99.9095 190.844 163.91 205.844 183.91C220.844 203.91 234.844 209.91 234.844 209.91L237.844 210.91L252.844 194.91L247.844 187.91C247.844 187.91 247.844 180.91 243.844 179.91C239.844 178.91 239.844 181.91 238.844 177.91C237.844 173.91 242.844 176.91 237.844 172.91C232.844 168.91 236.844 166.91 236.844 166.91L234.844 84.9095Z" fill="#D6D9E0"/>
<path d="M340.844 218.41L339.844 226.41L325.844 209.41H330.844L340.844 218.41Z" fill="#FFB8B8"/>
<path d="M339.344 106.41C339.344 106.41 353.344 99.4095 357.344 107.41C361.344 115.41 388.844 175.41 373.844 195.41C358.844 215.41 344.844 221.41 344.844 221.41L341.844 222.41L326.844 206.41L331.844 199.41C331.844 199.41 331.844 192.41 335.844 191.41C339.844 190.41 339.844 193.41 340.844 189.41C341.844 185.41 336.844 188.41 341.844 184.41C346.844 180.41 342.844 178.41 342.844 178.41L339.344 106.41Z" fill="#D6D9E0"/>
<path opacity="0.2" d="M244.344 124.41L233.344 168.41L246.344 184.41L240.344 164.41L244.344 124.41Z" fill="black"/>
<path opacity="0.2" d="M298.004 46.9795L290.014 60.3095C284.994 58.5695 284.574 46.9195 284.864 39.2395C290.804 39.1895 298.004 46.9795 298.004 46.9795Z" fill="black"/>
<path d="M128.108 466.676C128.282 484.47 117.764 490.785 104.716 490.913C104.413 490.916 104.111 490.915 103.811 490.911C103.206 490.904 102.607 490.882 102.015 490.846C90.2305 490.127 81.0166 483.685 80.8552 467.137C80.6881 450.011 102.365 428.185 103.991 426.571L103.994 426.57C104.056 426.508 104.087 426.478 104.087 426.478C104.087 426.478 127.935 448.883 128.108 466.676Z" fill="#D0CDE1"/>
<path d="M94.1187 380.843C94.2412 393.403 86.8168 397.861 77.6065 397.951C77.3925 397.953 77.1796 397.953 76.9677 397.95C76.5407 397.945 76.1182 397.93 75.6999 397.904C67.3815 397.397 60.8776 392.849 60.7637 381.168C60.6457 369.079 75.9471 353.673 77.0949 352.534L77.0968 352.533C77.1404 352.489 77.1628 352.468 77.1628 352.468C77.1628 352.468 93.9961 368.283 94.1187 380.843Z" fill="#D0CDE1"/>
<path d="M77.3439 400.42C110.481 400.42 137.344 398.523 137.344 396.184C137.344 393.845 110.481 391.949 77.3439 391.949C44.2068 391.949 17.3439 393.845 17.3439 396.184C17.3439 398.523 44.2068 400.42 77.3439 400.42Z" fill="#D0CDE1"/>
</svg>
