<svg width="72" height="72" viewBox="0 0 72 72" fill="none" xmlns="http://www.w3.org/2000/svg">
<g id="Group 1">
<path id="inside" fill-rule="evenodd" clip-rule="evenodd" d="M57 35.1C57 25.5 47.7 18 36 18C24.3 18 15 25.5 15 35.1C15 43.5 22.5 50.7 32.7 51.9C33.3 51.9 34.2 52.2 34.5 52.8C34.8 53.4 34.5 54.3 34.5 54.6L34.2 56.4C34.2 57 33.9 58.5 36 57.6C38.1 56.7 48 50.4 52.5 45.3C55.5 42.3 57 38.7 57 35.1Z" fill="white"/>
<path id="outside" fill-rule="evenodd" clip-rule="evenodd" d="M36 0C16.2 0 0 16.2 0 36C0 55.8 16.2 72 36 72C55.8 72 72 55.8 72 36C72 16.2 55.8 0 36 0ZM57 35.1C57 25.5 47.7 18 36 18C24.3 18 15 25.5 15 35.1C15 43.5 22.5 50.7 32.7 51.9C33.3 51.9 34.2 52.2 34.5 52.8C34.8 53.4 34.5 54.3 34.5 54.6L34.2 56.4C34.2 57 33.9 58.5 36 57.6C38.1 56.7 48 50.4 52.5 45.3C55.5 42.3 57 38.7 57 35.1ZM28.2 40.5H22.2H21.9V40.2V30.9C21.9 30.6 22.2 30.6 22.2 30.6H23.7C24 30.6 24 30.9 24 30.9V38.1H27.9C28.2 38.1 28.2 38.4 28.2 38.4V39.9C28.5 40.2 28.5 40.5 28.2 40.5ZM50.1 40.5H44.1H43.8V40.2V30.9V30.6H44.1H50.1C50.4 30.6 50.4 30.9 50.4 30.9V32.4C50.4 32.7 50.1 32.7 50.1 32.7H46.2V34.2H50.1C50.4 34.2 50.4 34.5 50.4 34.5V36C50.4 36.3 50.1 36.3 50.1 36.3H46.2V37.8H50.1C50.4 37.8 50.4 38.1 50.4 38.1V39.6C50.4 40.2 50.1 40.5 50.1 40.5ZM31.8 40.5H30.3C30 40.5 30 40.2 30 40.2V30.9C30 30.6 30.3 30.6 30.3 30.6H31.8C32.1 30.6 32.1 30.9 32.1 30.9V40.2C32.1 40.2 32.1 40.5 31.8 40.5ZM35.4 40.5H33.9C33.6 40.5 33.6 40.2 33.6 40.2V30.9C33.6 30.6 33.9 30.6 33.9 30.6H35.4L39.6 36.3V30.9C39.6 30.6 39.9 30.6 39.9 30.6H42C42.3 30.6 42.3 30.9 42.3 30.9V40.2C42.3 40.5 42 40.5 42 40.5H40.5L36 34.5V39.9C36 40.2 35.7 40.5 35.4 40.5Z" fill="white"/>
</g>
</svg>
