<?xml version="1.0" encoding="utf-8"?>
<!-- Generator: Adobe Illustrator 24.2.1, SVG Export Plug-In . SVG Version: 6.00 Build 0)  -->
<svg version="1.1" id="レイヤー_1" xmlns="http://www.w3.org/2000/svg" xmlns:xlink="http://www.w3.org/1999/xlink" x="0px"
	 y="0px" viewBox="0 0 24 24" style="enable-background:new 0 0 24 24;" xml:space="preserve">
<style type="text/css">
	.st0{fill-rule:evenodd;clip-rule:evenodd;}
	.st1{fill-rule:evenodd;clip-rule:evenodd;fill:none;}
</style>
<path class="st0" d="M12,0C5.4,0,0,5.4,0,12c0,6.6,5.4,12,12,12c6.6,0,12-5.4,12-12C24,5.4,18.6,0,12,0z M19,11.7
	C19,8.5,15.9,6,12,6s-7,2.5-7,5.7c0,2.8,2.5,5.2,5.9,5.6c0.2,0,0.5,0.1,0.6,0.3c0.1,0.2,0,0.5,0,0.6l-0.1,0.6c0,0.2-0.1,0.7,0.6,0.4
	c0.7-0.3,4-2.4,5.5-4.1C18.5,14.1,19,12.9,19,11.7z M9.4,13.5h-2l-0.1,0l0,0l0,0l0-0.1v-3.1c0-0.1,0.1-0.1,0.1-0.1h0.5
	c0.1,0,0.1,0.1,0.1,0.1v2.4h1.3c0.1,0,0.1,0.1,0.1,0.1v0.5C9.5,13.4,9.5,13.5,9.4,13.5z M16.7,13.5h-2l-0.1,0l0,0l0-0.1v-3.1l0-0.1
	l0,0l0.1,0h2c0.1,0,0.1,0.1,0.1,0.1v0.5c0,0.1-0.1,0.1-0.1,0.1h-1.3v0.5h1.3c0.1,0,0.1,0.1,0.1,0.1v0.5c0,0.1-0.1,0.1-0.1,0.1h-1.3
	v0.5h1.3c0.1,0,0.1,0.1,0.1,0.1v0.5C16.8,13.4,16.7,13.5,16.7,13.5z M10.6,13.5h-0.5c-0.1,0-0.1-0.1-0.1-0.1v-3.1
	c0-0.1,0.1-0.1,0.1-0.1h0.5c0.1,0,0.1,0.1,0.1,0.1v3.1C10.7,13.4,10.7,13.5,10.6,13.5z M11.8,13.5h-0.5c-0.1,0-0.1-0.1-0.1-0.1v-3.1
	c0-0.1,0.1-0.1,0.1-0.1h0.5l0,0l0,0l0,0l0,0l0,0l0,0l0,0l0,0l0,0l0,0l0,0l1.4,1.9v-1.8c0-0.1,0.1-0.1,0.1-0.1H14
	c0.1,0,0.1,0.1,0.1,0.1v3.1c0,0.1-0.1,0.1-0.1,0.1h-0.5l0,0l0,0l0,0l0,0l0,0l0,0l0,0l0,0L12,11.5v1.8C12,13.4,11.9,13.5,11.8,13.5z"
	/>
<path class="st1" d="M19,11.7C19,8.5,15.9,6,12,6s-7,2.5-7,5.7c0,2.8,2.5,5.2,5.9,5.6c0.2,0,0.5,0.1,0.6,0.3c0.1,0.2,0,0.5,0,0.6
	l-0.1,0.6c0,0.2-0.1,0.7,0.6,0.4c0.7-0.3,4-2.4,5.5-4.1C18.5,14.1,19,12.9,19,11.7z"/>
</svg>
