<svg xmlns="http://www.w3.org/2000/svg" viewBox="0 0 930 930"><defs><style>.cls-1{fill:#294572;}.cls-2{fill:#fe3e57;}.cls-3{fill:#fff;}</style></defs><g id="レイヤー_2" data-name="レイヤー 2"><g id="レイヤー_1-2" data-name="レイヤー 1"><rect class="cls-1" width="930" height="930"/><path class="cls-2" d="M671.11,889.92,437.7,560.25c-16.09-.8-31.73-2.72-38.18-3.58l-56.07-7.48L395,386.78l38.68,4.35c.77.08,5.28.51,18.14.51,18.61,0,40.68-.89,40.9-.9l.91,0h1c42.77,0,75-8.35,95.78-24.82,18.27-14.47,27.54-36.5,27.54-65.46,0-29.74-12.61-55-33.74-67.59-17.57-10.67-39.84-16.11-72.27-17.68l-61.56-3L504.77,41l37.7,3.19C603.55,49.35,649.06,63.51,690,90.08c33.32,21.83,60.81,53,79.56,90.14,18.33,36.36,28,77.92,28,120.2,0,68.42-22.88,128.72-66.17,174.4-25.58,27-58.25,48.12-95.22,61.69L894.85,889.92Z"/><path class="cls-2" d="M677.19,878.16,444,548.73c-17.34-.52-35.38-2.72-42.88-3.72l-42.17-5.62,44.4-139.85,29.08,3.27c1.58.17,6.66.59,19.45.59,18.84,0,41.16-.91,41.38-.92l.7,0h.77c45.49,0,80.17-9.2,103.08-27.35,21.23-16.82,32-41.94,32-74.68,0-33.92-14.75-63-39.47-77.69C571,211,547.05,205.08,512.56,203.4l-46.31-2.24L513.13,53.51l28.35,2.39c59,5,102.89,18.58,142.16,44.05,31.57,20.68,57.65,50.26,75.46,85.57,17.51,34.72,26.77,74.45,26.77,114.9,0,65.35-21.77,122.86-63,166.31C695,496.16,658.75,518,617.23,530.45L871.68,878.16Z"/><path class="cls-2" d="M677.19,878.16,444,548.73c-17.34-.52-35.38-2.72-42.88-3.72l-42.17-5.62,44.4-139.85,29.08,3.27c1.58.17,6.66.59,19.45.59,18.84,0,41.16-.91,41.38-.92l.7,0h.77c45.49,0,80.17-9.2,103.08-27.35,21.23-16.82,32-41.94,32-74.68,0-33.92-14.75-63-39.47-77.69C571,211,547.05,205.08,512.56,203.4l-46.31-2.24L513.13,53.51l28.35,2.39c59,5,102.89,18.58,142.16,44.05,31.57,20.68,57.65,50.26,75.46,85.57,17.51,34.72,26.77,74.45,26.77,114.9,0,65.35-21.77,122.86-63,166.31C695,496.16,658.75,518,617.23,530.45L871.68,878.16Z"/><path class="cls-2" d="M683.28,866.4,450.11,537.08c-18.33-.09-39.24-2.62-47.49-3.72l-28.27-3.77L411.58,412.3l19.48,2.19c2.21.25,7.85.66,20.77.66,19.23,0,41.64-.91,41.86-.92l.48,0h.51c48.2,0,85.34-10.06,110.38-29.89,24.19-19.16,36.45-47.39,36.45-83.9,0-38.1-16.9-70.92-45.21-87.79-21-12.74-46.61-19.19-83.17-21l-31.05-1.51L521.49,66l19,1.61c57,4.82,99.19,17.83,136.76,42.19,29.81,19.53,54.47,47.53,71.35,81,16.69,33.09,25.51,71,25.51,109.61,0,62.28-20.65,117-59.72,158.23-30.23,31.89-70.33,54.1-116.81,64.86L848.51,866.4Z"/><path class="cls-2" d="M677.28,877.93,444,548.51c-17.35-.52-35.43-2.72-43-3.72l-41.92-5.6,44.26-139.4L432.36,403c1.58.17,6.65.59,19.47.59,17.92,0,39-.82,41.35-.92l.75,0h.75c45.52,0,80.24-9.21,103.19-27.39C619.15,358.43,630,333.24,630,300.42c0-34-14.8-63.12-39.58-77.89-19.31-11.72-43.28-17.68-77.8-19.35l-46-2.24L513.26,53.75l28.21,2.38c59,5,102.84,18.57,142.08,44,31.54,20.66,57.59,50.21,75.38,85.48,17.5,34.69,26.74,74.38,26.74,114.79,0,65.28-21.74,122.74-62.88,166.14C694.86,496,658.5,517.88,616.88,530.32L871.26,877.93Z"/><path class="cls-2" d="M683.37,866.17,450.2,536.86c-18.34-.09-39.3-2.63-47.56-3.73l-28-3.74,37.1-116.84,19.34,2.17c2.21.25,7.84.66,20.78.66,18.93,0,40.94-.88,41.87-.92l.48,0h.5c48.24,0,85.41-10.07,110.48-29.93,24.25-19.21,36.54-47.5,36.54-84.09,0-38.19-16.94-71.08-45.32-88-21-12.76-46.66-19.22-83.24-21l-30.78-1.49L521.62,66.25l18.86,1.6c57,4.82,99.14,17.82,136.68,42.16,29.78,19.51,54.41,47.48,71.28,80.92,16.67,33,25.48,70.91,25.48,109.49,0,62.22-20.63,116.87-59.66,158.06-30.27,31.94-70.46,54.16-117,64.88L848.09,866.17Z"/><path class="cls-2" d="M683.37,866.17,450.2,536.86c-18.34-.09-39.3-2.63-47.56-3.73l-28-3.74,37.1-116.84,19.34,2.17c2.21.25,7.84.66,20.78.66,18.93,0,40.94-.88,41.87-.92l.48,0h.5c48.24,0,85.41-10.07,110.48-29.93,24.25-19.21,36.54-47.5,36.54-84.09,0-38.19-16.94-71.08-45.32-88-21-12.76-46.66-19.22-83.24-21l-30.78-1.49L521.62,66.25l18.86,1.6c57,4.82,99.14,17.82,136.68,42.16,29.78,19.51,54.41,47.48,71.28,80.92,16.67,33,25.48,70.91,25.48,109.49,0,62.22-20.63,116.87-59.66,158.06-30.27,31.94-70.46,54.16-117,64.88L848.09,866.17Z"/><path class="cls-2" d="M689.45,854.42,456.23,525c-1.63.05-3.33.07-5.09.07-17.87,0-38.78-2.53-46.94-3.62l-14.14-1.89L420,425.31l9.74,1.09c3,.34,9.28.74,22.1.74,19.47,0,42.13-.93,42.35-.94h.5c102.39,0,158.78-44.66,158.78-125.77,0-42.37-19.09-79-51.06-98.09-22.72-13.8-50-20.76-88.69-22.64l-15.53-.75L530,78.76l9.5.8c55,4.65,95.44,17.08,131.27,40.32,28,18.36,51.24,44.75,67.18,76.34,15.85,31.42,24.22,67.45,24.22,104.2,0,59.15-19.51,111-56.43,150-32.63,34.43-76.9,56.67-128.94,65L824.91,854.42Z"/><path class="cls-2" d="M677.28,877.93,444,548.51c-17.35-.52-35.43-2.72-43-3.72l-41.92-5.6,44.26-139.4L432.36,403c1.58.17,6.65.59,19.47.59,17.92,0,39-.82,41.35-.92l.75,0h.75c45.52,0,80.24-9.21,103.19-27.39C619.15,358.43,630,333.24,630,300.42c0-34-14.8-63.12-39.58-77.89-19.31-11.72-43.28-17.68-77.8-19.35l-46-2.24L513.26,53.75l28.21,2.38c59,5,102.84,18.57,142.08,44,31.54,20.66,57.59,50.21,75.38,85.48,17.5,34.69,26.74,74.38,26.74,114.79,0,65.28-21.74,122.74-62.88,166.14C694.86,496,658.5,517.88,616.88,530.32L871.26,877.93Z"/><path class="cls-2" d="M683.37,866.17,450.2,536.86c-18.34-.09-39.3-2.63-47.56-3.73l-28-3.74,37.1-116.84,19.34,2.17c2.21.25,7.84.66,20.78.66,18.93,0,40.94-.88,41.87-.92l.48,0h.5c48.24,0,85.41-10.07,110.48-29.93,24.25-19.21,36.54-47.5,36.54-84.09,0-38.19-16.94-71.08-45.32-88-21-12.76-46.66-19.22-83.24-21l-30.78-1.49L521.62,66.25l18.86,1.6c57,4.82,99.14,17.82,136.68,42.16,29.78,19.51,54.41,47.48,71.28,80.92,16.67,33,25.48,70.91,25.48,109.49,0,62.22-20.63,116.87-59.66,158.06-30.27,31.94-70.46,54.16-117,64.88L848.09,866.17Z"/><path class="cls-2" d="M683.37,866.17,450.2,536.86c-18.34-.09-39.3-2.63-47.56-3.73l-28-3.74,37.1-116.84,19.34,2.17c2.21.25,7.84.66,20.78.66,18.93,0,40.94-.88,41.87-.92l.48,0h.5c48.24,0,85.41-10.07,110.48-29.93,24.25-19.21,36.54-47.5,36.54-84.09,0-38.19-16.94-71.08-45.32-88-21-12.76-46.66-19.22-83.24-21l-30.78-1.49L521.62,66.25l18.86,1.6c57,4.82,99.14,17.82,136.68,42.16,29.78,19.51,54.41,47.48,71.28,80.92,16.67,33,25.48,70.91,25.48,109.49,0,62.22-20.63,116.87-59.66,158.06-30.27,31.94-70.46,54.16-117,64.88L848.09,866.17Z"/><path class="cls-2" d="M689.45,854.42,456.23,525c-1.63.05-3.33.07-5.09.07-17.87,0-38.78-2.53-46.94-3.62l-14.14-1.89L420,425.31l9.74,1.09c3,.34,9.28.74,22.1.74,19.47,0,42.13-.93,42.35-.94h.5c102.39,0,158.78-44.66,158.78-125.77,0-42.37-19.09-79-51.06-98.09-22.72-13.8-50-20.76-88.69-22.64l-15.53-.75L530,78.76l9.5.8c55,4.65,95.44,17.08,131.27,40.32,28,18.36,51.24,44.75,67.18,76.34,15.85,31.42,24.22,67.45,24.22,104.2,0,59.15-19.51,111-56.43,150-32.63,34.43-76.9,56.67-128.94,65L824.91,854.42Z"/><path class="cls-2" d="M683.45,865.94,450.29,536.63c-18.36-.08-39.36-2.62-47.62-3.72l-27.79-3.71,37-116.41L431,415c2.22.24,7.87.66,20.8.66,18.89,0,40.95-.88,41.88-.92l.47,0h.5c48.3,0,85.52-10.09,110.63-30,24.27-19.25,36.59-47.59,36.59-84.26,0-38.28-17-71.25-45.43-88.19-21-12.78-46.71-19.25-83.33-21l-30.51-1.48L521.75,66.49l18.71,1.58c57,4.82,99.09,17.82,136.61,42.14,29.75,19.49,54.35,47.43,71.2,80.84,16.65,33,25.46,70.83,25.46,109.37,0,62.15-20.61,116.75-59.6,157.89-30.32,32-70.58,54.22-117.28,64.9L847.66,865.94Z"/><path class="cls-2" d="M689.54,854.19,456.32,524.8c-1.66.05-3.39.07-5.18.07-17.85,0-38.76-2.53-46.92-3.62l-13.89-1.85,29.79-93.85,9.6,1.08c3,.34,9.28.74,22.11.74,19.47,0,42.13-.93,42.36-.94h.49c102.51,0,159-44.75,159-126,0-42.46-19.12-79.2-51.16-98.29-22.75-13.82-50.1-20.79-88.78-22.67l-15.25-.74L530.12,79l9.35.79c54.93,4.65,95.4,17.07,131.2,40.29,28,18.34,51.18,44.7,67.1,76.26C753.6,227.72,762,263.71,762,300.42c0,59.09-19.49,110.89-56.37,149.8-32.68,34.48-77,56.72-129.19,65l248.08,339Z"/><path class="cls-2" d="M689.54,854.19,456.32,524.8c-1.66.05-3.39.07-5.18.07-17.85,0-38.76-2.53-46.92-3.62l-13.89-1.85,29.79-93.85,9.6,1.08c3,.34,9.28.74,22.11.74,19.47,0,42.13-.93,42.36-.94h.49c102.51,0,159-44.75,159-126,0-42.46-19.12-79.2-51.16-98.29-22.75-13.82-50.1-20.79-88.78-22.67l-15.25-.74L530.12,79l9.35.79c54.93,4.65,95.4,17.07,131.2,40.29,28,18.34,51.18,44.7,67.1,76.26C753.6,227.72,762,263.71,762,300.42c0,59.09-19.49,110.89-56.37,149.8-32.68,34.48-77,56.72-129.19,65l248.08,339Z"/><path class="cls-2" d="M555.08,505.94c118.45-10.18,195.13-91.47,195.13-205.52,0-71.12-32.51-135.48-85.94-170.48-33.93-22-71.8-33.87-125.79-38.44l-24.2,76.22c41.72,2,70.48,9.89,94.23,24.31,36,21.45,56.9,62.1,56.9,108.39,0,88.08-61.54,137.76-170.73,137.76,0,0-49.31,2-66.27.13L405.77,509.6c10.7,1.43,38.38,4.67,56.38,3.09L695.62,842.43h105.7Z"/><rect class="cls-3" x="-194.33" y="386" width="877.3" height="157.95" transform="translate(-272.86 556.73) rotate(-72.34)"/></g></g></svg>