<svg xmlns="http://www.w3.org/2000/svg" viewBox="0 0 99.31 62.49"><g id="レイヤー_2" data-name="レイヤー 2"><g id="レイヤー_1-2" data-name="レイヤー 1"><path d="M0,32.92V30L32.26,2.85V14a2,2,0,0,1-.81,1.66l-6,5.07L14.65,29.7l-.06.07a2.28,2.28,0,0,0-.66,1.66,2.31,2.31,0,0,0,.67,1.68l.06.06,10.82,8.95,6,5a2,2,0,0,1,.83,1.68V60Z"/><path d="M67,48.83a2,2,0,0,1,.8-1.66l16.82-14,.06-.07a2.45,2.45,0,0,0,0-3.31l-.06-.07-16.82-14A2,2,0,0,1,67,14V2.85L99.31,30v3L67.05,60Z"/><path d="M35.54,40.74a3.1,3.1,0,0,0-.83,2.65l2.9,17.8.61.19L42,49.24a3.14,3.14,0,0,1-.49-.59A3.1,3.1,0,1,1,45.7,50a2.74,2.74,0,0,1-.74.22L41.18,62.3l.61.19,12.5-13a3.1,3.1,0,0,0,.83-2.64l-.95-8.69-12.92-4ZM48.94,5.88,42.22,31.21,55,35.2l8.86-24.66C67.77.29,51.54-4.69,48.94,5.88Z"/></g></g></svg>