<svg xmlns="http://www.w3.org/2000/svg" viewBox="0 0 461.9 425.12"><defs><style>.cls-1{fill:#fe3e57;}</style></defs><g id="レイヤー_2" data-name="レイヤー 2"><g id="レイヤー_1-2" data-name="レイヤー 1"><path class="cls-1" d="M461.9,401.74q-.28,11.4-12,17.39a51.43,51.43,0,0,1-23.66,6,77.46,77.46,0,0,1-31.51-7,248.3,248.3,0,0,1-34.64-19.24q-10-6.56-24.52-17.25t-34.22-26.09q-4.85-3.71-18.82-14.54t-37.06-29.09q-46.19-36.19-52.18-38.49-9.41-3.14-29.93-3.13-4.29,0-13.83.43t-24.67,1.56q-10.55-7.12-10.55-26,0-16,11.12-19.1c1-.18,2.52-.42,4.71-.71s4.7-.57,7.56-.86,5.93-.57,9.26-.85,6.7-.61,10.12-1q38.21-6,67.58-21.1,10.55-5.41,20.81-11.54t20.81-13a219.19,219.19,0,0,0,37.07-31.08q16.53-16.81,16.54-33.07a39.25,39.25,0,0,0-7-23,85,85,0,0,0-18.53-19.82A132,132,0,0,0,269.72,56a166.91,166.91,0,0,0-25.09-9.84,158,158,0,0,0-43.33-6c-4.38,0-9.55.19-15.54.57s-12.79,1-20.39,1.71q-11.12,1.16-21,2.28t-18.1,2.57q-8.27,1.43-17.82,3.14t-20.39,4Q94.66,65,99.51,87.53t4.84,36.78q0,8.56-.42,16.54t-1,15.4q-.57,7.41-1.57,15.11T98.94,187q-2.56,16-6.84,40.2-7.42,42.21-10.27,66.15-1.42,12.27-2.28,23.67t-.86,22.24a159,159,0,0,0,3.42,34.64,98.22,98.22,0,0,0,13.12,30.65A34.92,34.92,0,0,1,83.83,415q-7.42,4.41-14.26,4.41-19.11,0-27.94-7.69a34.16,34.16,0,0,1-11.12-20.25q-2-11.69-2-34.78a286.89,286.89,0,0,1,1.71-30.51q1.71-16,4-29.22t4.85-27.8q1.42-6.57,2.85-16.11T45.34,231q4-25.08,6.41-48.19a401.63,401.63,0,0,0,2.42-41.34q0-17.38-1.14-35.93T49.61,66.72q-31.36,9.12-35.07,9.12-8.83,0-11.69-5.42C1,66.82,0,61.87,0,55.6Q0,44.77,20.24,34.79,30.52,29.95,40.63,26t20.1-7.13q23.1-7.41,61-12.83Q159.67,0,185,0a343,343,0,0,1,84.12,10.27q40.2,9.69,68.71,35.64,28.23,25.65,28.23,68.71,0,27.38-20.53,53a221.48,221.48,0,0,1-48.33,44.2,635.07,635.07,0,0,1-60.3,35.92q18.81,12.82,51.32,35.93,16.25,11.4,30.51,21.38t26.51,18.82q12.54,8.55,27.66,19t33.36,22.67q18.24,12.25,32.08,21.24T461.9,401.74Z"/></g></g></svg>